<?xml version="1.0" standalone="no"?><!DOCTYPE svg PUBLIC "-//W3C//DTD SVG 1.1//EN" "http://www.w3.org/Graphics/SVG/1.1/DTD/svg11.dtd"><svg t="1746794355154" class="icon" viewBox="0 0 1024 1024" version="1.1" xmlns="http://www.w3.org/2000/svg" p-id="2821" xmlns:xlink="http://www.w3.org/1999/xlink" width="200" height="200"><path d="M512 512m-330 0a330 330 0 1 0 660 0 330 330 0 1 0-660 0Z" fill="#0391D9" p-id="2822"></path><path d="M302.4 307.9h44.9c-9.7 0.6-19.5 0.1-29.2 0.4h-15.7v-0.4z m0 0" fill="#FCFEFC" p-id="2823"></path><path d="M347.3 307.9H417c31.4 79.6 62.7 159.2 94 238.8 31.4-79.6 62.7-159.2 94-238.8h55.8c3.6 0.4 7.3 0.2 10.9 0.2 16 0 32 0.2 48 0.2v300.1H646c-0.1-13.1-0.1-26.1-0.1-39.2-0.2-11.8 0-23.7-0.1-35.5l-0.3-111c-30.8 62.5-61.8 125-92.6 187.6h-84c-30.8-62.5-61.7-125-92.5-187.5-0.3 12 0.1 24-0.2 35.9 0.1 19.1-0.1 38.3-0.1 57.4-0.2 12.6 0 25.3-0.2 37.9 0.1 18.1-0.1 36.2-0.1 54.4h-73.7V308.3h15.7c10-0.2 19.8 0.2 29.5-0.4z m0 0M468.3 622.7c1.5-0.6 3.2-0.2 4.9-0.3h79.2c0.6 0 1.1 0.1 1.6 0.3 30.6 12 61.1 24 91.7 35.9 0.2-11.9 0.3-23.8 0.5-35.7h73.7V674c-28.3 0-56.7 0.1-85 0.1-9.7-0.1-19.3 0.2-29 0.1-1.4-0.1-2.5-0.9-3.7-1.5-30.4-14.9-60.7-29.8-91.1-44.6-31.1 15.6-62.2 31.1-93.3 46.7-0.5 0.2-0.9 0.4-1.4 0.4-10.6-0.2-21.3 0-31.9-0.1-27.4 0-54.7-0.1-82-0.1v-52h73.7c0.1 12.8 0.3 25.7 0.4 38.5 30.5-13 61.1-25.9 91.7-38.8z m-165.9 61.2h110v34.8h-110v-34.8z m153.6 0h110v34.8H456v-34.8z m155.7 0h110v34.8h-110v-34.8z m0 0" fill="#FFFFFF" p-id="2824"></path></svg>