<?xml version="1.0" standalone="no"?><!DOCTYPE svg PUBLIC "-//W3C//DTD SVG 1.1//EN" "http://www.w3.org/Graphics/SVG/1.1/DTD/svg11.dtd"><svg t="1746795513779" class="icon" viewBox="0 0 1024 1024" version="1.1" xmlns="http://www.w3.org/2000/svg" p-id="12682" xmlns:xlink="http://www.w3.org/1999/xlink" width="200" height="200"><path d="M511.99428 0C229.228291 0 0 229.25117 0 512.00572s229.228291 511.99428 511.99428 511.99428 511.99428-229.228291 511.99428-511.99428S794.806028 0 511.99428 0z m-16.015551 548.475417L359.091529 752.753768a9.426296 9.426296 0 0 1-15.855396-0.308872L216.839118 547.422966a9.426296 9.426296 0 0 1 8.007776-14.368237h81.759387V371.50358c0-45.815915 43.905489-88.085529 115.037413-110.827611l-8.728475 24.469474a131.441913 131.441913 0 0 0-7.641706 44.157161v203.889402l82.949114 0.606303a9.426296 9.426296 0 0 1 7.790421 14.677108z m288.737502-64.462592h-81.576352v162.088814c0 45.815915-43.905489 88.085529-115.037413 110.827611l8.728475-24.469473a131.441913 131.441913 0 0 0 7.641705-44.157162v-204.427066l-83.07495-0.606303a9.426296 9.426296 0 0 1-7.767542-14.677109l136.898641-204.27835a9.426296 9.426296 0 0 1 15.855395 0.308871l126.397015 205.02193a9.426296 9.426296 0 0 1-8.030655 14.368237z" fill="#d81e06" p-id="12683"></path></svg>